<?xml version="1.0" encoding="UTF-8"?>
<svg width="284px" height="284px" viewBox="0 0 284 284" version="1.1" xmlns="http://www.w3.org/2000/svg" xmlns:xlink="http://www.w3.org/1999/xlink">
    <!-- Generator: Sketch 64 (93537) - https://sketch.com -->
    <title>G Copy 19</title>
    <desc>Created with Sketch.</desc>
    <g id="G-Copy-19" stroke="none" stroke-width="1" fill="none" fill-rule="evenodd">
        <path d="M166,-8.52651283e-14 C211.840139,-8.52651283e-14 253.340548,18.5805921 283.380718,48.6212668 L231.458115,100.54243 C218.617594,59.6406706 194.115464,32 166,32 C124.578644,32 91,91.9938435 91,166 C91,189.773605 94.465114,212.101223 100.5422,231.458574 L48.6212668,283.380718 C18.5805921,253.340548 2.84217094e-14,211.840139 2.84217094e-14,166 C2.84217094e-14,74.3207315 74.3207315,-8.52651283e-14 166,-8.52651283e-14 Z" id="Combined-Shape-Copy" fill="#000000" fill-rule="nonzero"></path>
        <path d="M183,120 C227.834476,120 264.26489,155.982069 264.989014,200.64398 L265,202 L265,284 L184,284 L184.007855,283.992 L183.999855,283.992 L184.000671,251.718362 C187.088736,249.029895 190.150839,246.175063 193.162951,243.162951 C225.185943,211.139959 239.432155,173.466643 224.982756,159.017244 C210.533357,144.567845 172.860041,158.814057 140.837049,190.837049 C138.819383,192.854715 136.872289,194.894811 134.998497,196.950117 L134.998307,135.51075 C148.492133,125.751905 165.074352,120 183,120 Z" id="Combined-Shape" fill="#000000" fill-rule="nonzero"></path>
    </g>
</svg>