<?xml version="1.0" encoding="UTF-8"?>
<svg width="292px" height="292px" viewBox="0 0 292 292" version="1.1" xmlns="http://www.w3.org/2000/svg" xmlns:xlink="http://www.w3.org/1999/xlink">
    <!-- Generator: Sketch 64 (93537) - https://sketch.com -->
    <title>Logo@2x</title>
    <desc>Created with Sketch.</desc>
    <g id="Logo" stroke="none" stroke-width="1" fill="none" fill-rule="evenodd">
        <path d="M292,126 L292,292 C248.259048,292 212.717181,256.895543 212.010718,213.322946 L212,212.002 L212,214.5 L211.996243,214.24484 C211.866239,209.835258 208.377794,206.26863 204.000441,206.014487 L204,206 L126,206 L126,158 C126,140.326888 140.326888,126 158,126 L292,126 Z M166.362766,0 C212.303081,0 253.894182,18.621197 284,48.7275206 C271.401741,61.3257792 261.953047,70.7744731 255.653918,77.0736024 C251.993249,80.734271 247.268902,85.4586179 241.480877,91.2466432 C240.475316,92.2522047 239.215734,93.5117862 237.702132,95.025388 C232.056408,100.671112 223.112609,101.290571 216.742466,96.4770818 C215.839464,95.7947433 215.008128,95.1992938 214.248458,94.6907334 C209.584552,91.5684838 204.598911,88.8893917 199.351779,86.7137011 C189.190278,82.5002987 178.048094,80.1748268 166.362766,80.1748268 C118.762481,80.1748268 80.1748268,118.762481 80.1748268,166.362766 C80.1748268,190.163414 89.8221505,211.710808 105.419684,227.307836 L48.7275206,284 C18.621197,253.894182 0,212.303081 0,166.362766 C0,74.4831472 74.4831472,0 166.362766,0 Z" id="Combined-Shape" fill="#000000" fill-rule="nonzero"></path>
    </g>
</svg>